<?xml version="1.0" standalone="no"?>
<!DOCTYPE svg PUBLIC "-//W3C//DTD SVG 20010904//EN"
 "http://www.w3.org/TR/2001/REC-SVG-20010904/DTD/svg10.dtd">
<svg version="1.0" xmlns="http://www.w3.org/2000/svg"
 width="500.000000pt" height="500.000000pt" viewBox="0 0 500.000000 500.000000"
 preserveAspectRatio="xMidYMid meet">
<metadata>
Created by potrace 1.15, written by Peter Selinger 2001-2017
</metadata>
<g transform="translate(0.000000,500.000000) scale(0.100000,-0.100000)"
fill="#DFDCE3" stroke="none">
<path d="M1500 4015 c-349 -70 -623 -332 -711 -680 -19 -73 -23 -116 -23 -230
2 -572 278 -915 1626 -2019 l108 -88 157 130 c87 71 196 161 243 200 47 40 88
72 93 72 4 0 7 -54 7 -120 l0 -120 115 0 115 0 0 219 c0 255 -15 216 140 352
149 131 394 373 497 494 267 310 366 548 367 880 0 114 -4 156 -23 230 -86
335 -321 574 -656 668 -108 30 -314 34 -435 9 -194 -40 -340 -123 -512 -290
l-108 -105 -113 109 c-168 164 -314 246 -501 285 -107 22 -287 24 -386 4z
m415 -216 l70 -24 3 -1043 c1 -639 -2 -1042 -7 -1040 -28 10 -322 278 -497
452 -285 285 -413 466 -478 672 -47 153 -57 336 -25 470 17 73 81 204 130 270
82 108 215 201 349 243 94 29 101 30 250 26 110 -2 148 -7 205 -26z m432 -311
c60 -67 125 -140 146 -162 20 -22 35 -47 32 -54 -12 -31 -309 -431 -316 -426
-5 3 -9 181 -9 395 0 385 0 390 20 379 11 -6 68 -65 127 -132z m1354 108 c98
-46 168 -140 205 -277 26 -91 26 -347 1 -439 -28 -103 -72 -184 -128 -234 -77
-70 -111 -77 -345 -74 l-199 3 -3 515 c-2 482 -1 516 15 528 14 11 59 13 208
9 181 -4 193 -5 246 -31z m-701 -886 c0 -511 -4 -820 -9 -820 -6 0 -21 15 -34
33 -67 91 -541 794 -544 807 -4 16 562 800 578 800 5 0 9 -310 9 -820z m-494
-525 c153 -225 304 -448 336 -495 32 -46 57 -89 56 -96 -4 -14 -390 -334 -400
-331 -4 1 -73 56 -153 121 l-145 120 0 546 c0 301 3 550 7 554 4 3 10 3 13 -1
4 -5 132 -192 286 -418z m955 -96 c-107 -105 -202 -194 -212 -200 -18 -9 -19
-2 -19 178 0 103 4 194 8 200 6 9 63 13 207 15 110 2 202 1 205 -1 3 -2 -82
-88 -189 -192z"/>
</g>
</svg>
